<svg xmlns="http://www.w3.org/2000/svg" xmlns:xlink="http://www.w3.org/1999/xlink" viewBox="0 0 342.32 312.96"><defs><style>.cls-1{isolation:isolate;}.cls-2{fill:url(#linear-gradient);}.cls-3{fill:url(#linear-gradient-2);}.cls-11,.cls-31,.cls-39,.cls-4,.cls-42,.cls-5,.cls-54,.cls-55,.cls-56,.cls-6,.cls-7,.cls-8,.cls-9{opacity:0.8;}.cls-11,.cls-15,.cls-17,.cls-19,.cls-22,.cls-23,.cls-26,.cls-31,.cls-39,.cls-4,.cls-42,.cls-5,.cls-54,.cls-55,.cls-56,.cls-6,.cls-7,.cls-8,.cls-9{mix-blend-mode:multiply;}.cls-4{fill:url(#linear-gradient-3);}.cls-5{fill:url(#linear-gradient-4);}.cls-6{fill:url(#linear-gradient-5);}.cls-7{fill:url(#linear-gradient-6);}.cls-8{fill:url(#linear-gradient-7);}.cls-9{fill:url(#linear-gradient-8);}.cls-10{fill:#cbdfef;}.cls-11{fill:url(#linear-gradient-9);}.cls-12,.cls-20,.cls-30{fill:#fff;}.cls-13{fill:url(#linear-gradient-10);}.cls-14{fill:#809297;}.cls-15{fill:url(#linear-gradient-11);}.cls-16{fill:#8a9ea2;}.cls-17{fill:url(#linear-gradient-12);}.cls-18{fill:#92a7ac;}.cls-19{fill:url(#linear-gradient-13);}.cls-20{opacity:0.1;}.cls-21{fill:#fdc870;}.cls-22{fill:url(#linear-gradient-14);}.cls-23{fill:url(#linear-gradient-15);}.cls-24,.cls-25{mix-blend-mode:overlay;}.cls-24{fill:url(#linear-gradient-16);}.cls-25{fill:url(#linear-gradient-17);}.cls-26{fill:url(#linear-gradient-18);}.cls-27,.cls-28,.cls-36,.cls-37,.cls-45,.cls-46,.cls-59{opacity:0.7;}.cls-27{fill:url(#linear-gradient-19);}.cls-28{fill:url(#linear-gradient-20);}.cls-29{fill:url(#linear-gradient-21);}.cls-30{mix-blend-mode:soft-light;}.cls-31{fill:url(#linear-gradient-22);}.cls-32{fill:url(#linear-gradient-23);}.cls-33{fill:#ffb300;}.cls-34{fill:#ffa000;}.cls-35{fill:#ffca28;}.cls-36{fill:url(#linear-gradient-24);}.cls-37{fill:url(#linear-gradient-25);}.cls-38{fill:url(#linear-gradient-26);}.cls-39{fill:url(#linear-gradient-27);}.cls-40{fill:url(#linear-gradient-28);}.cls-41{fill:#d32f2f;}.cls-42{fill:url(#linear-gradient-29);}.cls-43{fill:#ef5350;}.cls-44,.cls-53,.cls-61,.cls-63{fill:none;stroke:#fff;}.cls-44,.cls-53{stroke-miterlimit:10;}.cls-44,.cls-61{stroke-width:1.04px;}.cls-45{fill:url(#linear-gradient-30);}.cls-46{fill:url(#linear-gradient-31);}.cls-47{fill:url(#linear-gradient-32);}.cls-48{fill:#25284c;}.cls-49{fill:#111638;}.cls-50{fill:#f5f5f5;}.cls-51{fill:#7b92b9;}.cls-52{fill:#6a7ea2;}.cls-53{stroke-width:0.75px;}.cls-54{fill:url(#linear-gradient-33);}.cls-55{fill:url(#linear-gradient-34);}.cls-56{fill:url(#linear-gradient-35);}.cls-57{fill:url(#linear-gradient-36);}.cls-58{fill:url(#linear-gradient-37);}.cls-59{fill:url(#linear-gradient-38);}.cls-60{fill:url(#linear-gradient-39);}.cls-61,.cls-63{stroke-linecap:round;stroke-linejoin:round;}.cls-62{fill:#ffee58;}.cls-63{stroke-width:0.52px;}.cls-64{fill:url(#linear-gradient-40);}</style><linearGradient id="linear-gradient" x1="1406.22" y1="441.65" x2="1406.22" y2="130.44" gradientUnits="userSpaceOnUse"><stop offset="0" stop-color="#ac24b9"/><stop offset="1" stop-color="#2e2142"/></linearGradient><linearGradient id="linear-gradient-2" x1="1252.34" y1="438.57" x2="1235.35" y2="331.57" xlink:href="#linear-gradient"/><linearGradient id="linear-gradient-3" x1="81.3" y1="306.32" x2="84.54" y2="261.85" gradientUnits="userSpaceOnUse"><stop offset="0" stop-color="#fff" stop-opacity="0"/><stop offset="1" stop-color="#662d8d"/></linearGradient><linearGradient id="linear-gradient-4" x1="185.67" y1="307.38" x2="188.91" y2="262.91" xlink:href="#linear-gradient-3"/><linearGradient id="linear-gradient-5" x1="193.77" y1="259.24" x2="48.8" y2="257.47" xlink:href="#linear-gradient-3"/><linearGradient id="linear-gradient-6" x1="151.79" y1="114.1" x2="73.43" y2="201.89" xlink:href="#linear-gradient-3"/><linearGradient id="linear-gradient-7" x1="1626.93" y1="380.35" x2="1460.42" y2="380.35" xlink:href="#linear-gradient-3"/><linearGradient id="linear-gradient-8" x1="1602.57" y1="330.47" x2="1425.13" y2="330.47" xlink:href="#linear-gradient-3"/><linearGradient id="linear-gradient-9" x1="1397.85" y1="344.2" x2="1477.64" y2="344.2" xlink:href="#linear-gradient-3"/><linearGradient id="linear-gradient-10" x1="170.71" y1="115.52" x2="170.71" y2="220.52" gradientUnits="userSpaceOnUse"><stop offset="0" stop-color="#00d4c8"/><stop offset="1" stop-color="#00d2c7" stop-opacity="0"/></linearGradient><linearGradient id="linear-gradient-11" x1="1392.05" y1="289.61" x2="1418.71" y2="289.61" gradientUnits="userSpaceOnUse"><stop offset="0" stop-color="#fff" stop-opacity="0"/><stop offset="1" stop-color="#92a7ac"/></linearGradient><linearGradient id="linear-gradient-12" x1="1398.34" y1="277.4" x2="1423.55" y2="277.4" xlink:href="#linear-gradient-11"/><linearGradient id="linear-gradient-13" x1="1394.35" y1="269.85" x2="1424.69" y2="269.85" gradientTransform="translate(1628.54 -1144.47) rotate(88.08)" xlink:href="#linear-gradient-11"/><linearGradient id="linear-gradient-14" x1="1396.61" y1="213.72" x2="1430.92" y2="254.33" gradientUnits="userSpaceOnUse"><stop offset="0" stop-color="#fff" stop-opacity="0"/><stop offset="1" stop-color="#fdc870"/></linearGradient><linearGradient id="linear-gradient-15" x1="1435.12" y1="266.88" x2="1435.12" y2="286.68" gradientTransform="translate(-36.76 -18.98) rotate(-1.56)" xlink:href="#linear-gradient-14"/><linearGradient id="linear-gradient-16" x1="1448.26" y1="283.01" x2="1417.94" y2="232.07" gradientTransform="translate(-30.18 -58.19)" gradientUnits="userSpaceOnUse"><stop offset="0" stop-color="#fff" stop-opacity="0"/><stop offset="1" stop-color="#fff"/></linearGradient><linearGradient id="linear-gradient-17" x1="1384.83" y1="239.16" x2="1352.06" y2="223.29" gradientTransform="matrix(1, 0, 0, 1, 0, 0)" xlink:href="#linear-gradient-16"/><linearGradient id="linear-gradient-18" x1="1400.98" y1="273.6" x2="1428.91" y2="258.56" xlink:href="#linear-gradient-14"/><linearGradient id="linear-gradient-19" x1="1319.67" y1="247.48" x2="1413.76" y2="247.48" xlink:href="#linear-gradient-10"/><linearGradient id="linear-gradient-20" x1="1480.55" y1="247.48" x2="1414.51" y2="247.48" xlink:href="#linear-gradient-10"/><linearGradient id="linear-gradient-21" x1="170.71" y1="-18.57" x2="170.71" y2="86.43" xlink:href="#linear-gradient-10"/><linearGradient id="linear-gradient-22" x1="1499.77" y1="387.32" x2="1553.71" y2="387.32" xlink:href="#linear-gradient-3"/><linearGradient id="linear-gradient-23" x1="270.06" y1="189.14" x2="270.06" y2="260.14" xlink:href="#linear-gradient-10"/><linearGradient id="linear-gradient-24" x1="1446.91" y1="329.24" x2="1510.52" y2="329.24" xlink:href="#linear-gradient-10"/><linearGradient id="linear-gradient-25" x1="1555.68" y1="329.24" x2="1511.03" y2="329.24" xlink:href="#linear-gradient-10"/><linearGradient id="linear-gradient-26" x1="270.06" y1="113.11" x2="270.06" y2="184.11" xlink:href="#linear-gradient-10"/><linearGradient id="linear-gradient-27" x1="1300.97" y1="287.05" x2="1354.92" y2="287.05" xlink:href="#linear-gradient-3"/><linearGradient id="linear-gradient-28" x1="71.26" y1="88.88" x2="71.26" y2="159.87" xlink:href="#linear-gradient-10"/><linearGradient id="linear-gradient-29" x1="1303.85" y1="203.64" x2="1324.86" y2="244.08" xlink:href="#linear-gradient-3"/><linearGradient id="linear-gradient-30" x1="1248.11" y1="228.98" x2="1311.73" y2="228.98" xlink:href="#linear-gradient-10"/><linearGradient id="linear-gradient-31" x1="1356.89" y1="228.98" x2="1312.23" y2="228.98" xlink:href="#linear-gradient-10"/><linearGradient id="linear-gradient-32" x1="71.26" y1="12.85" x2="71.26" y2="83.85" xlink:href="#linear-gradient-10"/><linearGradient id="linear-gradient-33" x1="69.49" y1="185.54" x2="107.57" y2="261.7" xlink:href="#linear-gradient-3"/><linearGradient id="linear-gradient-34" x1="95.42" y1="249.63" x2="198.98" y2="249.63" xlink:href="#linear-gradient-3"/><linearGradient id="linear-gradient-35" x1="95.42" y1="229.4" x2="198.98" y2="229.4" xlink:href="#linear-gradient-3"/><linearGradient id="linear-gradient-36" x1="1342.77" y1="324.2" x2="1340.11" y2="350.44" xlink:href="#linear-gradient-14"/><linearGradient id="linear-gradient-37" x1="1333.79" y1="340.29" x2="1327.11" y2="352.96" gradientUnits="userSpaceOnUse"><stop offset="0" stop-color="#ba68c8" stop-opacity="0"/><stop offset="1" stop-color="#ba68c8"/></linearGradient><linearGradient id="linear-gradient-38" x1="1349.5" y1="350.15" x2="1343.28" y2="361.95" xlink:href="#linear-gradient-10"/><linearGradient id="linear-gradient-39" x1="1359.32" y1="349.91" x2="1353.3" y2="369.47" gradientUnits="userSpaceOnUse"><stop offset="0" stop-color="#ef5350"/><stop offset="1" stop-color="#ef5350" stop-opacity="0"/></linearGradient><linearGradient id="linear-gradient-40" x1="-240.53" y1="285.15" x2="-240.53" y2="193.97" gradientTransform="translate(1270.31 471.85) rotate(-177.48)" xlink:href="#linear-gradient"/></defs><title>ilust</title><g class="cls-1"><g id="Object"><path class="cls-2" d="M1575.24,365.1c-.49,2.85-1.07,5.67-1.72,8.49-.5,2.14-1,4.27-1.63,6.38a131.12,131.12,0,0,1-14.21,33.62c-6.5,10.55-14.85,19.71-25.47,26.08a76.83,76.83,0,0,1-18.21,7.78H1297.13c-21-11.38-39.38-31.41-35.38-54.86,3.48-20.41,6.75-40.77-.41-59.63-5.21-13.68-15.46-24.93-21.24-38.39-14.29-33.4,3.69-63.64,30.34-82.19,1-.67,1.94-1.33,2.93-2l.7-.45c1.09-.7,2.17-1.42,3.22-2.15,2.3-1.6,4.51-3.28,6.68-5.05h0q2.44-2,4.81-4.09l1.12-1q3.25-2.92,6.4-6,1.67-1.62,3.3-3.27c8.53-8.55,16.76-17.51,25.77-25.31,8.59-7.43,17.9-13.82,28.86-17.8a103.8,103.8,0,0,1,21-5.21,107.94,107.94,0,0,1,80.19,21c1.11.85,2.23,1.74,3.34,2.64,11.8,9.64,22.65,21.94,27.45,36.13,6,17.87,15,35.11,31.21,45.74,13.41,8.75,26.1,14.56,36.79,27.29a94.3,94.3,0,0,1,10,14.46,97.52,97.52,0,0,1,6,12.69,105,105,0,0,1,5.06,17.82A131.12,131.12,0,0,1,1575.24,365.1Z" transform="translate(-1235.06 -134.5)"/><path class="cls-3" d="M1237.69,401.32c-.34,5.92,0,12.15,3,17.29,2.49,4.31,8.34,7.62,12.38,4.7,3.06-2.21,3.28-6.75,2.26-10.39s-3-7.06-3.26-10.83c-.44-5.93,6.58-21.13-4-21.82C1238.59,379.65,1238,395.46,1237.69,401.32Z" transform="translate(-1235.06 -134.5)"/><ellipse class="cls-4" cx="82.65" cy="287.81" rx="20.46" ry="8.05"/><ellipse class="cls-5" cx="187.01" cy="288.88" rx="20.46" ry="8.05"/><polygon class="cls-6" points="69.07 252.35 87.57 252.35 128.68 271.49 123.31 283.6 142.57 283.6 184.39 257.67 133.19 239.77 102.75 232.91 69.07 252.35"/><rect class="cls-7" x="72.88" y="112.48" width="101.38" height="66.47"/><path class="cls-8" d="M1575.24,347.12v18c-.49,2.85-1.07,5.67-1.72,8.49-.5,2.14-1,4.27-1.63,6.38a131.12,131.12,0,0,1-14.21,33.62h-53V347.12Z" transform="translate(-1235.06 -134.5)"/><path class="cls-9" d="M1575.24,317.86V365.1c-.49,2.85-1.07,5.67-1.72,8.49H1425.67V287.35h138.56a97.52,97.52,0,0,1,6,12.69A105,105,0,0,1,1575.24,317.86Z" transform="translate(-1235.06 -134.5)"/><path class="cls-10" d="M1458.84,352.61V305.16H1352.7v47.45h0c0,7.84,5.18,15.68,15.55,21.66,20.72,12,54.32,12,75,0C1453.66,368.29,1458.84,360.45,1458.84,352.61Z" transform="translate(-1235.06 -134.5)"/><path class="cls-11" d="M1458.84,352.61V305.16H1352.7v47.45h0c0,7.84,5.18,15.68,15.55,21.66,20.72,12,54.32,12,75,0C1453.66,368.29,1458.84,360.45,1458.84,352.61Z" transform="translate(-1235.06 -134.5)"/><ellipse class="cls-12" cx="170.71" cy="170.66" rx="53.07" ry="30.62"/><ellipse class="cls-13" cx="170.71" cy="164.71" rx="53.07" ry="30.62"/><path id="_Trazado_" data-name="&lt;Trazado&gt;" class="cls-14" d="M1418.71,290.06c-.19,5.53-6.3,9.81-13.66,9.57s-13.18-4.93-13-10.47,6.3-9.81,13.66-9.56S1418.9,284.53,1418.71,290.06Z" transform="translate(-1235.06 -134.5)"/><path id="_Trazado_2" data-name="&lt;Trazado&gt;" class="cls-15" d="M1418.71,290.06c-.19,5.53-6.3,9.81-13.66,9.57s-13.18-4.93-13-10.47,6.3-9.81,13.66-9.56S1418.9,284.53,1418.71,290.06Z" transform="translate(-1235.06 -134.5)"/><path id="_Trazado_3" data-name="&lt;Trazado&gt;" class="cls-16" d="M1427.55,278.13c-.23,6.75-10.15,11.89-22.17,11.48s-21.56-6.2-21.33-12.94,10.14-11.88,22.16-11.48S1427.77,271.39,1427.55,278.13Z" transform="translate(-1235.06 -134.5)"/><path id="_Trazado_4" data-name="&lt;Trazado&gt;" class="cls-17" d="M1427.55,278.13c-.23,6.75-10.15,11.89-22.17,11.48s-21.56-6.2-21.33-12.94,10.14-11.88,22.16-11.48S1427.77,271.39,1427.55,278.13Z" transform="translate(-1235.06 -134.5)"/><ellipse id="_Trazado_5" data-name="&lt;Trazado&gt;" class="cls-18" cx="1406.05" cy="269.85" rx="12.22" ry="21.76" transform="translate(-145.92 1531.55) rotate(-88.08)"/><ellipse id="_Trazado_6" data-name="&lt;Trazado&gt;" class="cls-19" cx="1406.05" cy="269.85" rx="12.22" ry="21.76" transform="translate(-145.92 1531.55) rotate(-88.08)"/><path id="_Trazado_7" data-name="&lt;Trazado&gt;" class="cls-20" d="M1387.58,272.63c-.6.3-1.47-.22-1.94-1.15s-.35-1.94.25-2.24,1.46.22,1.93,1.15S1388.18,272.33,1387.58,272.63Z" transform="translate(-1235.06 -134.5)"/><path id="_Trazado_8" data-name="&lt;Trazado&gt;" class="cls-20" d="M1388.75,274.44a.7.7,0,1,1,.41-1A.75.75,0,0,1,1388.75,274.44Z" transform="translate(-1235.06 -134.5)"/><path id="_Trazado_9" data-name="&lt;Trazado&gt;" class="cls-20" d="M1387.65,280.76c-.6.3-1.47-.22-1.94-1.15s-.35-1.94.25-2.24,1.46.22,1.93,1.15S1388.25,280.46,1387.65,280.76Z" transform="translate(-1235.06 -134.5)"/><path id="_Trazado_10" data-name="&lt;Trazado&gt;" class="cls-20" d="M1388.82,282.57a.7.7,0,1,1,.41-1A.75.75,0,0,1,1388.82,282.57Z" transform="translate(-1235.06 -134.5)"/><path id="_Trazado_11" data-name="&lt;Trazado&gt;" class="cls-21" d="M1445.35,218.89c.14-21.92-17.49-36.49-39.35-36.63s-39.68,14.21-39.81,36.13c-.14,21.47,10.84,24.72,16.44,35.76a10.8,10.8,0,0,1,1.11,6.52c0,8.34,9,13.06,21.68,13.14s21.79-4.52,21.85-12.86a10.74,10.74,0,0,1,1.19-6.51C1434.2,243.47,1445.22,240.36,1445.35,218.89Z" transform="translate(-1235.06 -134.5)"/><path class="cls-22" d="M1445.36,218.89c0,1.34-.06,2.6-.15,3.81-.06.92-.16,1.81-.28,2.66A33.23,33.23,0,0,1,1441.8,236l-.08.17c-3.63,7.16-9.17,10.95-12.85,17.5-.14.25-.28.5-.41.75a10.79,10.79,0,0,0-1.2,6.51,7.88,7.88,0,0,1,0,1c0,.15,0,.29,0,.43a.78.78,0,0,1,0,.22,2.7,2.7,0,0,1-.07.41,3.15,3.15,0,0,1-.09.42c0,.19-.1.38-.15.56a.08.08,0,0,1,0,.05,9,9,0,0,1-.62,1.51.79.79,0,0,0,0,.09c-2.16,4.11-7.26,6.77-14,7.76a42.78,42.78,0,0,1-6.67.44c-12.65-.08-21.73-4.8-21.68-13.14a10.71,10.71,0,0,0-1.11-6.52c-5.6-11-16.58-14.29-16.44-35.76.14-21.92,18-36.27,39.81-36.13S1445.5,197,1445.36,218.89Z" transform="translate(-1235.06 -134.5)"/><path id="_Trazado_compuesto_" data-name="&lt;Trazado compuesto&gt;" class="cls-23" d="M1418.3,237.86c-.69-4.17-5.37-9.68-8.8-4.26-2.38,3.75-2.12,9-2.12,13.38v.28l-1.17.06a1,1,0,0,0-.31.05,1.3,1.3,0,0,0-.32-.06c-.38,0-.76,0-1.15-.07V247c.06-3.79.07-7.67-1.08-11.28-1.8-5.7-7.07-5.45-9.15-.09-2,5.11-.13,9,3.37,11.37a14.16,14.16,0,0,0,4.78,2c0,.11,0,.21,0,.3,0,2.82,0,5.65,0,8.47,0,2.51,0,5,0,7.54,0,1.14,0,2.26,0,3.39,0,1.68,0,3.35,0,5,.68.05,1.37.09,2.07.11l0-5.18,0-3.43c0-2.51,0-5,0-7.55,0-2.77,0-5.56.05-8.33.38,0,.77.07,1.16.08a1.08,1.08,0,0,0,.32,0,.73.73,0,0,0,.3,0c.39,0,.78,0,1.18-.06,0,2.78,0,5.58-.06,8.36q0,3.78,0,7.56c0,1.13,0,2.24,0,3.37,0,.26,0,.53,0,.79l0,4.38h.09s0,0,0,0h.15l.67,0,.58,0,.56,0,0-5c0-.49,0-1,0-1.48s0-1.17,0-1.76c0-2.52,0-5,.05-7.57,0-2.84,0-5.7,0-8.54V249C1414.91,248,1419.38,244.33,1418.3,237.86Zm-22.79,1.82c0-2.28,2.31-9.11,5.17-5.09,2.2,3.1,1.9,8.16,1.73,12.34C1398.71,246.16,1395.55,244.07,1395.51,239.68Zm13.89,7.3c-.12-4.19-.36-9.25,1.88-12.32,2.92-4,5.16,2.87,5.11,5.16C1416.29,244.2,1413.09,246.25,1409.4,247Z" transform="translate(-1235.06 -134.5)"/><ellipse class="cls-24" cx="1404.91" cy="202.68" rx="27.74" ry="16.01" transform="translate(-1240.06 -96.13) rotate(-1.56)"/><path class="cls-25" d="M1371.67,229.89c1.85,5.36,5.31,10.28,9,14.42,3.83,4.33,8.42,8.62,9.21,14.34a6.61,6.61,0,0,0,.54,2.34,1.66,1.66,0,0,0,2,.88,2,2,0,0,0,.85-.87,11.72,11.72,0,0,0,1.5-8.53c-1-4.65-4.59-8-7.6-11.48a27.8,27.8,0,0,1-6.35-12c-.59-2.75-.77-5.58-1.36-8.33a9.85,9.85,0,0,0-1.47-3.73,4.23,4.23,0,0,0-3.41-1.85,4.18,4.18,0,0,0-3.38,2.32,9,9,0,0,0-.88,4.15A24.22,24.22,0,0,0,1371.67,229.89Z" transform="translate(-1235.06 -134.5)"/><path class="cls-26" d="M1445.36,218.89q0,2-.15,3.81c-.06.92-.16,1.81-.28,2.66A36,36,0,0,1,1441.8,236l-.08.17c-3.63,7.16-9.17,10.95-12.85,17.5-.14.25-.28.5-.41.75a10.79,10.79,0,0,0-1.2,6.51,7.88,7.88,0,0,1,0,1c0,.15,0,.29,0,.43a.78.78,0,0,1,0,.22,2.7,2.7,0,0,1-.07.41,3.15,3.15,0,0,1-.09.42c0,.19-.1.38-.15.56a.08.08,0,0,1,0,.05,9,9,0,0,1-.62,1.51.79.79,0,0,0,0,.09,7.89,7.89,0,0,1,1.67,5,7.5,7.5,0,0,1-1.19,3.74,7.42,7.42,0,0,1,.93,3.81c-.13,4-3.72,7.48-9.15,9.52a7.5,7.5,0,0,1,.32,2.41c-.19,5.53-6.3,9.81-13.66,9.57-.42,0-.83-.05-1.24-.09,1.6-1.92,3.41-3.76,4.32-5.58,3.18-6.31,3.58-13.66,4-20.59,0-.13,0-.26,0-.39l1-17.52a5.1,5.1,0,0,1,.29-1.7c.69-1.6,2.72-2,4.41-2.36C1436.26,247.06,1443.78,233.35,1445.36,218.89Z" transform="translate(-1235.06 -134.5)"/><path class="cls-21" d="M1443.71,176.87a3.54,3.54,0,1,1-3.54-3.54A3.53,3.53,0,0,1,1443.71,176.87Z" transform="translate(-1235.06 -134.5)"/><path class="cls-21" d="M1443.71,274.53a3.54,3.54,0,1,1-3.54-3.53A3.53,3.53,0,0,1,1443.71,274.53Z" transform="translate(-1235.06 -134.5)"/><circle class="cls-21" cx="141.06" cy="124.76" r="3.53"/><circle class="cls-21" cx="212.53" cy="31.93" r="2.23"/><circle class="cls-21" cx="208.65" cy="120.06" r="2.23"/><circle class="cls-21" cx="146.83" cy="30.62" r="2.23"/><circle class="cls-21" cx="214.76" cy="147.58" r="2.23"/><circle class="cls-21" cx="135.21" cy="159.02" r="2.23"/><path class="cls-27" d="M1458.84,299.21V165.12c0,7.84-5.18,15.67-15.54,21.65-20.73,12-54.33,12-75,0-10.37-6-15.55-13.81-15.55-21.65V299.21h0c0,7.84,5.18,15.67,15.55,21.65,20.72,12,54.32,12,75,0C1453.66,314.88,1458.84,307.05,1458.84,299.21Z" transform="translate(-1235.06 -134.5)"/><path class="cls-28" d="M1458.84,299.21V165.12c0,7.84-5.18,15.67-15.54,21.65-20.73,12-54.33,12-75,0-10.37-6-15.55-13.81-15.55-21.65V299.21h0c0,7.84,5.18,15.67,15.55,21.65,20.72,12,54.32,12,75,0C1453.66,314.88,1458.84,307.05,1458.84,299.21Z" transform="translate(-1235.06 -134.5)"/><ellipse class="cls-29" cx="170.71" cy="30.62" rx="53.07" ry="30.62"/><path class="cls-30" d="M1360.65,250.72h0a7.23,7.23,0,0,1-3.62-6.26V195.7a1.39,1.39,0,0,1,2.09-1.21h0a7.41,7.41,0,0,1,3.71,6.42v48.55A1.45,1.45,0,0,1,1360.65,250.72Z" transform="translate(-1235.06 -134.5)"/><path class="cls-30" d="M1360.65,272.66h0a7.23,7.23,0,0,1-3.62-6.26v-6.93a1.39,1.39,0,0,1,2.09-1.2h0a7.4,7.4,0,0,1,3.71,6.42v6.71A1.45,1.45,0,0,1,1360.65,272.66Z" transform="translate(-1235.06 -134.5)"/><path class="cls-10" d="M1541,393V360.92h-71.76V393h0c0,5.3,3.5,10.6,10.51,14.64,14,8.09,36.73,8.09,50.74,0C1537.5,403.61,1541,398.31,1541,393Z" transform="translate(-1235.06 -134.5)"/><path class="cls-31" d="M1541,393V360.92h-71.76V393h0c0,5.3,3.5,10.6,10.51,14.64,14,8.09,36.73,8.09,50.74,0C1537.5,403.61,1541,398.31,1541,393Z" transform="translate(-1235.06 -134.5)"/><ellipse class="cls-12" cx="270.06" cy="226.43" rx="35.88" ry="20.71"/><ellipse class="cls-32" cx="270.06" cy="222.41" rx="35.88" ry="20.71"/><path class="cls-21" d="M1530.87,299.21a2.39,2.39,0,1,1-2.39-2.39A2.39,2.39,0,0,1,1530.87,299.21Z" transform="translate(-1235.06 -134.5)"/><circle class="cls-21" cx="291.03" cy="216.17" r="2.39"/><path class="cls-21" d="M1487.46,332.28a2.39,2.39,0,1,1-2.39-2.39A2.39,2.39,0,0,1,1487.46,332.28Z" transform="translate(-1235.06 -134.5)"/><path class="cls-21" d="M1525.21,289.11a1.51,1.51,0,1,1-1.51-1.51A1.51,1.51,0,0,1,1525.21,289.11Z" transform="translate(-1235.06 -134.5)"/><path class="cls-21" d="M1518.48,356.9a1.51,1.51,0,1,1-1.51-1.5A1.5,1.5,0,0,1,1518.48,356.9Z" transform="translate(-1235.06 -134.5)"/><path class="cls-21" d="M1486.31,286.94a1.51,1.51,0,1,1-1.51-1.5A1.5,1.5,0,0,1,1486.31,286.94Z" transform="translate(-1235.06 -134.5)"/><path class="cls-21" d="M1536.41,331.2a1.51,1.51,0,1,1-1.51-1.5A1.51,1.51,0,0,1,1536.41,331.2Z" transform="translate(-1235.06 -134.5)"/><path class="cls-21" d="M1482.63,353.05a1.51,1.51,0,1,1-1.51-1.5A1.51,1.51,0,0,1,1482.63,353.05Z" transform="translate(-1235.06 -134.5)"/><path class="cls-33" d="M1527.63,325.42c0,.11,0,.23,0,.34a21.86,21.86,0,0,1-.38,3.94,16.21,16.21,0,0,1-.54,2.08,11.16,11.16,0,0,1-4.52,6.16h0l-.18.11-.35.2-5.54,3.21-1.25-2.15a19.25,19.25,0,0,1-7-2.53c-10.89-6.27-19.7-21.56-19.7-34.13a22.32,22.32,0,0,1,.27-3.57c.12-.71.27-1.38.43-2s.32-1,.5-1.51l-1.3-2.24,5.6-3.23c.19-.11.37-.22.57-.32l.3-.18v0a11.63,11.63,0,0,1,8.13-.51,16.43,16.43,0,0,1,2,.63,22,22,0,0,1,3.23,1.55l.25.16c.49.27,1,.59,1.46.92a28.28,28.28,0,0,1,2.78,2.11c.4.35.82.69,1.21,1.07.8.73,1.58,1.52,2.34,2.35.34.37.69.78,1,1.18.71.81,1.38,1.66,2,2.53.29.42.59.83.87,1.26.61.87,1.19,1.79,1.73,2.72.27.44.53.88.76,1.33.53.94,1,1.89,1.46,2.86.22.47.43.93.62,1.4q.64,1.51,1.17,3c.18.5.33,1,.48,1.5a32.53,32.53,0,0,1,.82,3.23c.12.52.22,1.06.3,1.59a30.25,30.25,0,0,1,.38,3.49C1527.62,324.49,1527.63,325,1527.63,325.42Z" transform="translate(-1235.06 -134.5)"/><path class="cls-34" d="M1504.68,289.74l-16.2,9.35-1.31.76-.4-1.53,2.14-1.25,13.81-8A16.43,16.43,0,0,1,1504.68,289.74Z" transform="translate(-1235.06 -134.5)"/><path class="cls-34" d="M1509.62,292.37,1490,303.7l-.4-1.53,18.58-10.72C1508.65,291.72,1509.13,292,1509.62,292.37Z" transform="translate(-1235.06 -134.5)"/><path class="cls-34" d="M1513.61,295.55l-20.82,12-.38-1.53,20-11.54C1512.8,294.83,1513.22,295.17,1513.61,295.55Z" transform="translate(-1235.06 -134.5)"/><path class="cls-34" d="M1517,299.08l-21.35,12.31-.4-1.54,20.73-12C1516.29,298.27,1516.64,298.68,1517,299.08Z" transform="translate(-1235.06 -134.5)"/><path class="cls-34" d="M1519.87,302.87l-21.44,12.37-.38-1.54,21-12.09C1519.29,302,1519.59,302.44,1519.87,302.87Z" transform="translate(-1235.06 -134.5)"/><path class="cls-34" d="M1522.36,306.92l-21.1,12.17-.4-1.54,20.74-12C1521.87,306,1522.13,306.47,1522.36,306.92Z" transform="translate(-1235.06 -134.5)"/><path class="cls-34" d="M1524.44,311.18l-20.37,11.76-.4-1.54,20.15-11.62C1524,310.25,1524.25,310.71,1524.44,311.18Z" transform="translate(-1235.06 -134.5)"/><path class="cls-34" d="M1526.09,315.71l-19.2,11.08-.39-1.54,19.11-11C1525.79,314.71,1525.94,315.21,1526.09,315.71Z" transform="translate(-1235.06 -134.5)"/><path class="cls-34" d="M1527.21,320.53l-17.5,10.11-.4-1.54,17.6-10.16C1527,319.46,1527.13,320,1527.21,320.53Z" transform="translate(-1235.06 -134.5)"/><path class="cls-34" d="M1527.63,325.42c0,.11,0,.23,0,.34l-15.09,8.72-.41-1.54,15.47-8.92C1527.62,324.49,1527.63,325,1527.63,325.42Z" transform="translate(-1235.06 -134.5)"/><path class="cls-34" d="M1527.24,329.7a16.21,16.21,0,0,1-.54,2.08l-11.36,6.55-.39-1.54Z" transform="translate(-1235.06 -134.5)"/><ellipse class="cls-35" cx="1502.32" cy="317.27" rx="16.09" ry="27.86" transform="translate(-1192.2 659.87) rotate(-30.03)"/><path class="cls-33" d="M1505.92,301.57h-2.06a26.24,26.24,0,0,1,2.17,2.06l1.23-.72C1506.83,302.45,1506.38,302,1505.92,301.57Zm-17.44-2.48s0,.09,0,.13l.43.12a6.64,6.64,0,0,1,.55-.8Zm17.44,2.48h-2.06a26.24,26.24,0,0,1,2.17,2.06l1.23-.72C1506.83,302.45,1506.38,302,1505.92,301.57Zm-17.46-2.35.43.12a6.64,6.64,0,0,1,.55-.8l-1,.55S1488.47,299.18,1488.46,299.22Zm29.92,26.41c-.06-.54-.14-1.08-.23-1.63-.2-1.08-.45-2.17-.76-3.27-.14-.51-.29-1-.45-1.51-.33-1-.72-2-1.14-3.05-.19-.47-.4-.95-.61-1.41-.44-1-.93-1.95-1.44-2.88-.25-.45-.5-.9-.77-1.33-.54-.92-1.12-1.83-1.74-2.7-.28-.42-.58-.84-.89-1.25-.64-.88-1.33-1.73-2-2.53-.35-.4-.71-.79-1.06-1.16s-.88-.91-1.34-1.34-.71-.66-1.07-1-.83-.71-1.25-1.05a26.9,26.9,0,0,0-2.95-2l-.06,0a16.31,16.31,0,0,0-1.55-.8,14.32,14.32,0,0,0-4.16-1.31,8,8,0,0,0-1.36-.11,7.66,7.66,0,0,0-1.92.23,6.09,6.09,0,0,0-2.66,1.46l-.17.17h0a7.21,7.21,0,0,0-1.24,1.75,8.59,8.59,0,0,0-.39.81v0a17,17,0,0,0-1.05,6.16c0,10.77,7.54,24.29,16.75,30.34.4.28.81.53,1.22.77a14.66,14.66,0,0,0,7.07,2.24,7.2,7.2,0,0,0,2-.27,5.9,5.9,0,0,0,2.08-1,4.48,4.48,0,0,0,.81-.76,7.15,7.15,0,0,0,1.15-1.68h0a13.76,13.76,0,0,0,1.23-4.42,18.45,18.45,0,0,0,.13-1.84c0-.21,0-.41,0-.59A23.74,23.74,0,0,0,1518.38,325.63Zm-1.49,6.33a7.81,7.81,0,0,1-2.62,4.93,5.12,5.12,0,0,1-3.15,1,8.64,8.64,0,0,1-1.4-.12h0a14.34,14.34,0,0,1-4.24-1.54h0c-.23-.12-.47-.24-.7-.38-9.38-5.41-17.29-19.11-17.29-29.92a15.71,15.71,0,0,1,.84-5.31,8.38,8.38,0,0,1,.59-1.25,6.64,6.64,0,0,1,.55-.8h0a4.85,4.85,0,0,1,3.08-1.78h0a7.25,7.25,0,0,1,1-.07,11,11,0,0,1,4,.88,17.14,17.14,0,0,1,1.69.8c.23.11.44.23.66.36a22,22,0,0,1,2.39,1.59c.43.32.87.66,1.29,1a1.5,1.5,0,0,1,.27.24h0a26.24,26.24,0,0,1,2.17,2.06c.38.37.73.75,1.07,1.14.71.8,1.4,1.64,2.06,2.52.3.4.61.82.9,1.24.61.88,1.19,1.78,1.74,2.71.26.43.52.87.76,1.32.52.95,1,1.91,1.43,2.89.22.46.42.93.61,1.41a30.41,30.41,0,0,1,1.11,3.06h0c.17.52.31,1,.45,1.51a28.59,28.59,0,0,1,.7,3.3q.14.83.21,1.65c.07.76.11,1.51.11,2.25,0,.4,0,.88,0,1.42A17.62,17.62,0,0,1,1516.89,332Zm-28.41-32.87s0,.09,0,.13l.43.12a6.64,6.64,0,0,1,.55-.8Zm17.44,2.48h-2.06a26.24,26.24,0,0,1,2.17,2.06l1.23-.72C1506.83,302.45,1506.38,302,1505.92,301.57Z" transform="translate(-1235.06 -134.5)"/><path class="cls-33" d="M1507.81,320.78a9.23,9.23,0,0,0-.71-1.36,12.73,12.73,0,0,0-2.09-2.49,15.15,15.15,0,0,0-1.24-1.06c-.31-.25-.62-.48-.93-.7a9.15,9.15,0,0,1-1.77-1.45,1.86,1.86,0,0,1-.51-1.27.73.73,0,0,1,0-.22c.07-.27.29-.37.6-.34a3.14,3.14,0,0,1,1.23.46l.49.3a9.18,9.18,0,0,1,2.47,2.3c.09.11.17.22.25.34l1.52-1.37,0,0h0l.37-.33a15.49,15.49,0,0,0-2-2.44,12.08,12.08,0,0,0-1.2-1.07l-.37-.29v-2l-1-.6-1.54-.88-.73-.42v2.06a6.05,6.05,0,0,0-1.51-.35h0a2,2,0,0,0-2.29,1.32,3.94,3.94,0,0,0-.2,1.32c0,.19,0,.37,0,.55a7.76,7.76,0,0,0,1.71,4.41h0l0,.05a13.92,13.92,0,0,0,2.4,2.32c.44.34.9.67,1.36,1a.12.12,0,0,0,0,.05,5.18,5.18,0,0,1,2.22,2.36,1,1,0,0,1,.08.4.61.61,0,0,1-.73.68,3.34,3.34,0,0,1-1.43-.52,11,11,0,0,1-4-4.1l-2.13,1.59a14.71,14.71,0,0,0,4.44,5.26v2.13l3.3,1.9v-2.19a4.73,4.73,0,0,0,2.81.33,2.27,2.27,0,0,0,1.57-2.24v0a4.63,4.63,0,0,0,0-.54A7.15,7.15,0,0,0,1507.81,320.78Z" transform="translate(-1235.06 -134.5)"/><path class="cls-36" d="M1541,356.9v-76c0,5.29-3.5,10.59-10.51,14.64-14,8.08-36.73,8.08-50.74,0-7-4-10.51-9.35-10.51-14.64v76h0c0,5.3,3.5,10.6,10.51,14.64,14,8.09,36.73,8.09,50.74,0C1537.5,367.5,1541,362.2,1541,356.9Z" transform="translate(-1235.06 -134.5)"/><path class="cls-37" d="M1541,356.9v-76c0,5.29-3.5,10.59-10.51,14.64-14,8.08-36.73,8.08-50.74,0-7-4-10.51-9.35-10.51-14.64v76h0c0,5.3,3.5,10.6,10.51,14.64,14,8.09,36.73,8.09,50.74,0C1537.5,367.5,1541,362.2,1541,356.9Z" transform="translate(-1235.06 -134.5)"/><ellipse class="cls-38" cx="270.06" cy="146.38" rx="35.88" ry="20.71"/><path class="cls-30" d="M1474.61,324.12h0a4.9,4.9,0,0,1-2.44-4.24v-22a.94.94,0,0,1,1.41-.82h0a5,5,0,0,1,2.51,4.35v21.82A1,1,0,0,1,1474.61,324.12Z" transform="translate(-1235.06 -134.5)"/><path class="cls-30" d="M1474.61,339h0a4.89,4.89,0,0,1-2.44-4.23V330a.94.94,0,0,1,1.41-.81h0a5,5,0,0,1,2.51,4.34v4.54A1,1,0,0,1,1474.61,339Z" transform="translate(-1235.06 -134.5)"/><path class="cls-10" d="M1342.2,292.74V260.66h-71.76v32.08h0c0,5.3,3.5,10.6,10.51,14.64,14,8.09,36.73,8.09,50.74,0C1338.7,303.34,1342.2,298,1342.2,292.74Z" transform="translate(-1235.06 -134.5)"/><path class="cls-39" d="M1342.2,292.74V260.66h-71.76v32.08h0c0,5.3,3.5,10.6,10.51,14.64,14,8.09,36.73,8.09,50.74,0C1338.7,303.34,1342.2,298,1342.2,292.74Z" transform="translate(-1235.06 -134.5)"/><ellipse class="cls-12" cx="71.26" cy="126.16" rx="35.88" ry="20.71"/><ellipse class="cls-40" cx="71.26" cy="122.14" rx="35.88" ry="20.71"/><circle class="cls-41" cx="94.62" cy="64.45" r="2.39"/><circle class="cls-41" cx="92.23" cy="115.9" r="2.39"/><path class="cls-41" d="M1288.67,232a2.4,2.4,0,1,1-2.4-2.38A2.4,2.4,0,0,1,1288.67,232Z" transform="translate(-1235.06 -134.5)"/><path class="cls-41" d="M1326.41,188.84a1.51,1.51,0,1,1-1.51-1.51A1.51,1.51,0,0,1,1326.41,188.84Z" transform="translate(-1235.06 -134.5)"/><path class="cls-41" d="M1319.68,256.64a1.51,1.51,0,1,1-1.5-1.51A1.51,1.51,0,0,1,1319.68,256.64Z" transform="translate(-1235.06 -134.5)"/><path class="cls-41" d="M1287.52,186.68a1.51,1.51,0,1,1-1.51-1.51A1.52,1.52,0,0,1,1287.52,186.68Z" transform="translate(-1235.06 -134.5)"/><path class="cls-41" d="M1337.61,230.94a1.51,1.51,0,1,1-1.51-1.51A1.51,1.51,0,0,1,1337.61,230.94Z" transform="translate(-1235.06 -134.5)"/><path class="cls-41" d="M1283.83,252.79a1.51,1.51,0,1,1-1.51-1.51A1.52,1.52,0,0,1,1283.83,252.79Z" transform="translate(-1235.06 -134.5)"/><path class="cls-41" d="M1328.83,225.15c0,.11,0,.24,0,.35a21.74,21.74,0,0,1-.38,3.93,12.91,12.91,0,0,1-.54,2.08,11.2,11.2,0,0,1-4.51,6.16v0l-.18.11-.35.19-5.54,3.21-1.25-2.14a19.48,19.48,0,0,1-7-2.54c-10.89-6.27-19.7-21.56-19.7-34.12a22.1,22.1,0,0,1,.28-3.57,19.61,19.61,0,0,1,.43-2c.15-.52.31-1,.49-1.51l-1.3-2.24,5.6-3.23c.19-.11.37-.22.57-.32l.3-.17,0,0a11.71,11.71,0,0,1,8.12-.51,16.53,16.53,0,0,1,2,.64,21.06,21.06,0,0,1,3.23,1.55,2.07,2.07,0,0,1,.25.15c.49.28,1,.6,1.46.93a28.16,28.16,0,0,1,2.78,2.1c.41.35.82.7,1.21,1.07.8.73,1.58,1.52,2.34,2.35.35.38.69.78,1,1.18.7.82,1.37,1.66,2,2.54.29.41.59.83.87,1.26.61.87,1.19,1.78,1.73,2.71.27.44.53.89.77,1.33.52.94,1,1.9,1.45,2.87.22.47.43.93.62,1.4q.64,1.52,1.17,3c.18.5.33,1,.48,1.49a30.59,30.59,0,0,1,.82,3.23c.13.53.22,1.07.31,1.59a32.58,32.58,0,0,1,.37,3.49C1328.82,224.23,1328.83,224.7,1328.83,225.15Z" transform="translate(-1235.06 -134.5)"/><path class="cls-42" d="M1328.83,225.15c0,.11,0,.24,0,.35a21.74,21.74,0,0,1-.38,3.93,12.91,12.91,0,0,1-.54,2.08,11.2,11.2,0,0,1-4.51,6.16v0l-.18.11-.35.19-5.54,3.21-1.25-2.14a19.48,19.48,0,0,1-7-2.54c-10.89-6.27-19.7-21.56-19.7-34.12a22.1,22.1,0,0,1,.28-3.57,19.61,19.61,0,0,1,.43-2c.15-.52.31-1,.49-1.51l-1.3-2.24,5.6-3.23c.19-.11.37-.22.57-.32l.3-.17,0,0a11.71,11.71,0,0,1,8.12-.51,16.53,16.53,0,0,1,2,.64,21.06,21.06,0,0,1,3.23,1.55,2.07,2.07,0,0,1,.25.15c.49.28,1,.6,1.46.93a28.16,28.16,0,0,1,2.78,2.1c.41.35.82.7,1.21,1.07.8.73,1.58,1.52,2.34,2.35.35.38.69.78,1,1.18.7.82,1.37,1.66,2,2.54.29.41.59.83.87,1.26.61.87,1.19,1.78,1.73,2.71.27.44.53.89.77,1.33.52.94,1,1.9,1.45,2.87.22.47.43.93.62,1.4q.64,1.52,1.17,3c.18.5.33,1,.48,1.49a30.59,30.59,0,0,1,.82,3.23c.13.53.22,1.07.31,1.59a32.58,32.58,0,0,1,.37,3.49C1328.82,224.23,1328.83,224.7,1328.83,225.15Z" transform="translate(-1235.06 -134.5)"/><ellipse class="cls-43" cx="1303.52" cy="217" rx="16.09" ry="27.86" transform="translate(-1168.7 546.93) rotate(-30.03)"/><ellipse class="cls-44" cx="1303.52" cy="217" rx="12.69" ry="21.97" transform="translate(-1168.7 546.93) rotate(-30.03)"/><ellipse class="cls-44" cx="1303.52" cy="217" rx="8.85" ry="15.33" transform="translate(-1168.7 546.93) rotate(-30.03)"/><path class="cls-44" d="M1309.94,220.7c0,4.09-2.87,5.75-6.42,3.7a14.15,14.15,0,0,1-6.41-11.1c0-4.09,2.87-5.74,6.41-3.7A14.15,14.15,0,0,1,1309.94,220.7Z" transform="translate(-1235.06 -134.5)"/><path class="cls-12" d="M1306.05,218.46c0,1.61-1.13,2.26-2.53,1.45a5.57,5.57,0,0,1-2.52-4.36c0-1.61,1.13-2.26,2.52-1.46A5.56,5.56,0,0,1,1306.05,218.46Z" transform="translate(-1235.06 -134.5)"/><path class="cls-45" d="M1342.2,256.64v-76c0,5.3-3.5,10.6-10.51,14.64-14,8.09-36.73,8.09-50.74,0-7-4-10.51-9.34-10.51-14.64v76h0c0,5.3,3.5,10.6,10.51,14.64,14,8.08,36.73,8.08,50.74,0C1338.7,267.23,1342.2,261.94,1342.2,256.64Z" transform="translate(-1235.06 -134.5)"/><path class="cls-46" d="M1342.2,256.64v-76c0,5.3-3.5,10.6-10.51,14.64-14,8.09-36.73,8.09-50.74,0-7-4-10.51-9.34-10.51-14.64v76h0c0,5.3,3.5,10.6,10.51,14.64,14,8.08,36.73,8.08,50.74,0C1338.7,267.23,1342.2,261.94,1342.2,256.64Z" transform="translate(-1235.06 -134.5)"/><ellipse class="cls-47" cx="71.26" cy="46.11" rx="35.88" ry="20.71"/><path class="cls-30" d="M1275.81,223.85h0a4.89,4.89,0,0,1-2.44-4.23v-22a.94.94,0,0,1,1.41-.81h0a5,5,0,0,1,2.51,4.34V223A1,1,0,0,1,1275.81,223.85Z" transform="translate(-1235.06 -134.5)"/><path class="cls-30" d="M1275.81,238.69h0a4.9,4.9,0,0,1-2.44-4.24v-4.68a.94.94,0,0,1,1.41-.82h0a5,5,0,0,1,2.51,4.35v4.53A1,1,0,0,1,1275.81,238.69Z" transform="translate(-1235.06 -134.5)"/><path class="cls-48" d="M1415.78,347.41s-5.93,6.29-6.31,12.55l1.15,2.47,2.39-1.74s1.69-8.23,4.77-10.69Z" transform="translate(-1235.06 -134.5)"/><path class="cls-49" d="M1429.68,421.17s.41,3.89-1.5,3.69c-2.22-.23-9.11-4.86-7.57-6.32s7.27,1.18,7.27,1.18Z" transform="translate(-1235.06 -134.5)"/><path class="cls-49" d="M1417.45,426.93s.41,3.9-1.5,3.7c-2.22-.24-9.11-4.87-7.57-6.33s7.27,1.18,7.27,1.18Z" transform="translate(-1235.06 -134.5)"/><rect class="cls-50" x="184.13" y="195.32" width="4.08" height="5.76"/><path class="cls-48" d="M1414.84,360.89s-6.57,15-1.63,66.42a.83.83,0,0,0,.4.64c.87.49,3.05,1.37,4.17-1.53a1.05,1.05,0,0,0,.06-.24l4.28-53.88c0-.86.48-.9.57,0l2.63,49.26a.92.92,0,0,0,.6.82c1.15.43,3.67.94,4.14-2.69,0,0,4.46-53.28-.75-60.5Z" transform="translate(-1235.06 -134.5)"/><path class="cls-49" d="M1429.31,357.5a2.92,2.92,0,0,1-.43.61c-1.5,1.53-5.53,4.29-13.56,1.42a1.47,1.47,0,0,1-.48-.29v1.65a1.66,1.66,0,0,0,.48.29c8,2.87,12.06.11,13.56-1.42a2.92,2.92,0,0,0,.43-.61Z" transform="translate(-1235.06 -134.5)"/><path class="cls-12" d="M1445.64,308.63s0-3.49.47-3.56.33,1.1.33,1.1.39-2.59,1-2.44c.2,0-.05,1.64-.05,1.64s.24-.91,1.69,0c.45.28.34,1.13-1.38,3.83Z" transform="translate(-1235.06 -134.5)"/><path class="cls-51" d="M1428.45,332s12.22-1.06,17-23.67a2.77,2.77,0,0,1,2.34.83s-.72,27.18-17.64,32.4Z" transform="translate(-1235.06 -134.5)"/><path class="cls-52" d="M1419.19,333.63l4.08-.93,6.44-.84c1.58-.21,2.71,2.07,2.83,4.51.21,4.64-2.9,20.43-2.9,20.43a2.79,2.79,0,0,1-.75,1.71c-1.49,1.52-5.52,4.31-13.57,1.43a1.47,1.47,0,0,1-1-1.17l-3-18.67a2.6,2.6,0,0,1,1.07-2.52Z" transform="translate(-1235.06 -134.5)"/><path class="cls-12" d="M1414.11,322.57s.49,5.57,2.8,8.43,6.77-1.86,7.44-3.23,1.74-10-5.19-10C1414.67,317.77,1413.88,320.56,1414.11,322.57Z" transform="translate(-1235.06 -134.5)"/><path class="cls-48" d="M1420.78,326a9.47,9.47,0,0,1-3.19-4.45s-.51-.31-3.34,2.07c0,0-3.2,0-1.72-3.38s7.64-7.63,10.59-4.26c0,0,5.64-.94,4.55,6.35-1.44,9.61-5.94,8-7.07,5.83S1420.78,326,1420.78,326Z" transform="translate(-1235.06 -134.5)"/><path class="cls-12" d="M1419.33,324.91s.93-1.83,1.7-.74-.16,3.31-1.84,3.6Z" transform="translate(-1235.06 -134.5)"/><polygon class="cls-48" points="158.79 197.47 167.47 206.1 176.17 200.93 167.47 192.03 158.79 197.47"/><polyline class="cls-53" points="166.73 202.09 166.73 200.15 168.56 200.15 168.56 196.07"/><polyline class="cls-53" points="166.83 197.2 168.45 195.58 170.28 197.41"/><path class="cls-12" d="M1397.62,335.7a11.07,11.07,0,0,1,1.22-1.33.21.21,0,0,1,.36.21l-.37,1.27s1.85-.51.81,2.53l-1.79.48Z" transform="translate(-1235.06 -134.5)"/><path class="cls-51" d="M1399.8,338.34s9.51,17.06,3.85,18.13-5.92-17.57-5.92-17.57A2.06,2.06,0,0,1,1399.8,338.34Z" transform="translate(-1235.06 -134.5)"/><path class="cls-51" d="M1412.43,337.58s-2.55,1.28-6.1,6.33c-4.81,6.86-7,10.95-2.56,12.46,1.14.38,9-7.81,9-7.81S1415.9,341.76,1412.43,337.58Z" transform="translate(-1235.06 -134.5)"/><path class="cls-51" d="M1418.36,334.11l.83-1.41a8.7,8.7,0,0,1,4.08-.92l1,.83S1424,333.58,1418.36,334.11Z" transform="translate(-1235.06 -134.5)"/><polygon class="cls-10" points="99.95 182.74 69.07 252.35 66.26 250.68 66.26 210.23 99.95 182.74"/><polygon class="cls-10" points="102.75 184.41 102.75 232.91 69.07 252.35 69.07 211.9 102.75 184.41"/><polygon class="cls-54" points="102.75 184.41 102.75 232.91 69.07 252.35 69.07 211.9 102.75 184.41"/><polygon class="cls-10" points="154.19 213.99 123.31 283.6 120.5 281.93 120.5 241.48 154.19 213.99"/><polygon class="cls-10" points="156.99 215.66 156.99 264.17 123.31 283.6 123.31 243.15 156.99 215.66"/><polygon class="cls-55" points="156.99 215.66 156.99 264.17 123.31 283.6 123.31 243.15 156.99 215.66"/><polygon class="cls-10" points="123.31 245.86 66.26 212.94 156.99 215.66 156.99 218.37 123.31 245.86"/><polygon class="cls-56" points="123.31 245.86 66.26 212.94 156.99 215.66 156.99 218.37 123.31 245.86"/><polygon class="cls-12" points="123.31 243.15 66.26 210.23 99.95 182.74 156.99 215.66 123.31 243.15"/><polygon class="cls-48" points="122.53 238.63 72.9 209.96 100.72 187.26 150.35 215.92 122.53 238.63"/><path class="cls-57" d="M1345.05,348l-18.92-10.92a.72.72,0,0,1-.09-1.18l10-8.14a1.63,1.63,0,0,1,1.87-.15l18.66,10.77a.92.92,0,0,1,.12,1.52l-9.74,7.95A1.63,1.63,0,0,1,1345.05,348Z" transform="translate(-1235.06 -134.5)"/><path class="cls-58" d="M1336.57,354.8l-18.92-10.93a.72.72,0,0,1-.1-1.18l4.94-3.93a1.66,1.66,0,0,1,1.87-.15L1343,349.38a.94.94,0,0,1,.12,1.53l-4.7,3.74A1.66,1.66,0,0,1,1336.57,354.8Z" transform="translate(-1235.06 -134.5)"/><path class="cls-59" d="M1346.13,360.52,1340,357a.73.73,0,0,1-.1-1.19l4.93-3.93a1.68,1.68,0,0,1,1.88-.15l5.9,3.38a.92.92,0,0,1,.13,1.52l-4.7,3.74A1.65,1.65,0,0,1,1346.13,360.52Z" transform="translate(-1235.06 -134.5)"/><path class="cls-60" d="M1355.79,366l-6.58-3.89a.71.71,0,0,1-.09-1.18l4.93-3.94a1.66,1.66,0,0,1,1.87-.15l6.32,3.74a.92.92,0,0,1,.12,1.52l-4.7,3.75A1.66,1.66,0,0,1,1355.79,366Z" transform="translate(-1235.06 -134.5)"/><polygon class="cls-10" points="123.31 245.86 123.31 243.15 66.26 210.23 66.26 212.94 123.31 245.86"/><path class="cls-61" d="M1329.85,336.51c0-.1,9.18-.73,9.18-.73l1.77,3.18h11l-2.39-1.13" transform="translate(-1235.06 -134.5)"/><line class="cls-61" x1="116.73" y1="204.47" x2="116.73" y2="206.36"/><ellipse class="cls-43" cx="126.95" cy="208.25" rx="1.15" ry="0.66"/><ellipse class="cls-62" cx="130.26" cy="210.14" rx="1.15" ry="0.66"/><path class="cls-43" d="M1369.45,347a1.78,1.78,0,0,1-1.62,0c-.45-.26-.45-.68,0-.93a1.78,1.78,0,0,1,1.62,0C1369.9,346.31,1369.9,346.73,1369.45,347Z" transform="translate(-1235.06 -134.5)"/><path class="cls-43" d="M1372.77,348.88a1.78,1.78,0,0,1-1.62,0,.5.5,0,0,1,0-.94,1.84,1.84,0,0,1,1.62,0A.5.5,0,0,1,1372.77,348.88Z" transform="translate(-1235.06 -134.5)"/><path class="cls-43" d="M1376.08,350.77a1.78,1.78,0,0,1-1.62,0,.5.5,0,0,1,0-.94,1.84,1.84,0,0,1,1.62,0A.5.5,0,0,1,1376.08,350.77Z" transform="translate(-1235.06 -134.5)"/><path class="cls-43" d="M1360.09,345.28a1.78,1.78,0,0,1-1.62,0,.49.49,0,0,1,0-.93,1.78,1.78,0,0,1,1.62,0C1360.54,344.6,1360.54,345,1360.09,345.28Z" transform="translate(-1235.06 -134.5)"/><path class="cls-43" d="M1363.41,347.17a1.78,1.78,0,0,1-1.62,0c-.45-.26-.45-.68,0-.93a1.78,1.78,0,0,1,1.62,0C1363.86,346.49,1363.86,346.91,1363.41,347.17Z" transform="translate(-1235.06 -134.5)"/><path class="cls-43" d="M1366.72,349.06a1.78,1.78,0,0,1-1.62,0,.49.49,0,0,1,0-.93,1.78,1.78,0,0,1,1.62,0C1367.17,348.38,1367.17,348.8,1366.72,349.06Z" transform="translate(-1235.06 -134.5)"/><path class="cls-62" d="M1370,351a1.78,1.78,0,0,1-1.62,0c-.45-.26-.45-.68,0-.93a1.78,1.78,0,0,1,1.62,0C1370.49,350.27,1370.49,350.69,1370,351Z" transform="translate(-1235.06 -134.5)"/><path class="cls-62" d="M1373.35,352.84a1.78,1.78,0,0,1-1.62,0,.49.49,0,0,1,0-.93,1.78,1.78,0,0,1,1.62,0C1373.8,352.16,1373.8,352.58,1373.35,352.84Z" transform="translate(-1235.06 -134.5)"/><path class="cls-62" d="M1357.37,347.35a1.78,1.78,0,0,1-1.62,0c-.45-.26-.45-.67,0-.93a1.78,1.78,0,0,1,1.62,0C1357.82,346.68,1357.82,347.09,1357.37,347.35Z" transform="translate(-1235.06 -134.5)"/><path class="cls-43" d="M1360.68,349.24a1.78,1.78,0,0,1-1.62,0c-.45-.26-.45-.67,0-.93a1.78,1.78,0,0,1,1.62,0C1361.13,348.57,1361.13,349,1360.68,349.24Z" transform="translate(-1235.06 -134.5)"/><ellipse class="cls-62" cx="128.13" cy="216.17" rx="1.15" ry="0.66"/><path class="cls-43" d="M1367.31,353a1.78,1.78,0,0,1-1.62,0c-.45-.26-.45-.68,0-.93a1.78,1.78,0,0,1,1.62,0C1367.76,352.34,1367.76,352.76,1367.31,353Z" transform="translate(-1235.06 -134.5)"/><path class="cls-43" d="M1370.63,354.91a1.78,1.78,0,0,1-1.62,0c-.45-.26-.45-.68,0-.93a1.78,1.78,0,0,1,1.62,0A.49.49,0,0,1,1370.63,354.91Z" transform="translate(-1235.06 -134.5)"/><path class="cls-43" d="M1354.64,349.42a1.78,1.78,0,0,1-1.62,0c-.45-.25-.45-.67,0-.93a1.78,1.78,0,0,1,1.62,0C1355.09,348.75,1355.09,349.17,1354.64,349.42Z" transform="translate(-1235.06 -134.5)"/><path class="cls-43" d="M1358,351.31a1.8,1.8,0,0,1-1.63,0,.49.49,0,0,1,0-.93,1.8,1.8,0,0,1,1.63,0A.49.49,0,0,1,1358,351.31Z" transform="translate(-1235.06 -134.5)"/><path class="cls-43" d="M1361.27,353.2a1.78,1.78,0,0,1-1.62,0c-.45-.25-.45-.67,0-.93a1.78,1.78,0,0,1,1.62,0C1361.72,352.53,1361.72,353,1361.27,353.2Z" transform="translate(-1235.06 -134.5)"/><path class="cls-43" d="M1364.59,355.09a1.8,1.8,0,0,1-1.63,0,.49.49,0,0,1,0-.93,1.8,1.8,0,0,1,1.63,0A.49.49,0,0,1,1364.59,355.09Z" transform="translate(-1235.06 -134.5)"/><path class="cls-62" d="M1367.9,357a1.78,1.78,0,0,1-1.62,0c-.45-.26-.45-.67,0-.93a1.78,1.78,0,0,1,1.62,0C1368.35,356.31,1368.35,356.72,1367.9,357Z" transform="translate(-1235.06 -134.5)"/><ellipse class="cls-62" cx="116.04" cy="216.53" rx="1.15" ry="0.66"/><ellipse class="cls-43" cx="119.36" cy="218.42" rx="1.15" ry="0.66"/><path class="cls-62" d="M1358.54,355.27a1.78,1.78,0,0,1-1.62,0,.49.49,0,0,1,0-.93,1.78,1.78,0,0,1,1.62,0C1359,354.6,1359,355,1358.54,355.27Z" transform="translate(-1235.06 -134.5)"/><ellipse class="cls-43" cx="125.99" cy="222.2" rx="1.15" ry="0.66"/><path class="cls-62" d="M1365.17,359.05a1.78,1.78,0,0,1-1.62,0c-.45-.25-.45-.67,0-.93a1.78,1.78,0,0,1,1.62,0C1365.62,358.38,1365.62,358.8,1365.17,359.05Z" transform="translate(-1235.06 -134.5)"/><line class="cls-63" x1="88.15" y1="206.12" x2="104.95" y2="215.94"/><line class="cls-63" x1="86.93" y1="207.1" x2="103.72" y2="216.92"/><line class="cls-63" x1="85.7" y1="208.08" x2="102.49" y2="217.9"/><path class="cls-48" d="M1314.59,341.61s6.25,6.65,6.65,13.26l-1.21,2.6-2.52-1.84s-1.79-8.68-5-11.27Z" transform="translate(-1235.06 -134.5)"/><path class="cls-49" d="M1299.92,419.47s-.43,4.11,1.58,3.9c2.34-.25,9.61-5.14,8-6.68s-7.68,1.25-7.68,1.25Z" transform="translate(-1235.06 -134.5)"/><path class="cls-49" d="M1312.83,425.55s-.44,4.11,1.58,3.9c2.34-.25,9.61-5.13,8-6.67s-7.68,1.24-7.68,1.24Z" transform="translate(-1235.06 -134.5)"/><rect class="cls-12" x="1306.68" y="323.05" width="4.31" height="6.08" transform="translate(1382.6 517.68) rotate(180)"/><path class="cls-48" d="M1315.58,355.85s6.93,15.81,1.72,70.1a.86.86,0,0,1-.43.67c-.91.52-3.21,1.45-4.4-1.61a1.1,1.1,0,0,1-.06-.26l-4.51-56.86c0-.91-.52-1-.61,0l-2.77,52a1,1,0,0,1-.64.88c-1.21.45-3.87,1-4.37-2.84,0,0-4.71-56.24.79-63.86Z" transform="translate(-1235.06 -134.5)"/><path class="cls-49" d="M1300.3,352.27a3.25,3.25,0,0,0,.46.64c1.58,1.62,5.83,4.53,14.31,1.5a1.63,1.63,0,0,0,.51-.3v1.74a1.63,1.63,0,0,1-.51.3c-8.48,3-12.73.12-14.31-1.5a3.25,3.25,0,0,1-.46-.64Z" transform="translate(-1235.06 -134.5)"/><path class="cls-52" d="M1311,327.07l-4.31-1-6.8-.88c-1.67-.22-2.86,2.18-3,4.76-.23,4.9,3.06,21.56,3.06,21.56a2.81,2.81,0,0,0,.79,1.8c1.57,1.61,5.82,4.55,14.32,1.51a1.54,1.54,0,0,0,1-1.23l3.16-19.71a2.71,2.71,0,0,0-1.12-2.65Z" transform="translate(-1235.06 -134.5)"/><path class="cls-12" d="M1316.35,315.4s-.52,5.88-3,8.9-7.15-2-7.85-3.41-1.84-10.55,5.47-10.55C1315.76,310.34,1316.59,313.28,1316.35,315.4Z" transform="translate(-1235.06 -134.5)"/><path class="cls-48" d="M1309.3,319.06a9.86,9.86,0,0,0,3.37-4.69s.54-.33,3.53,2.18c0,0,3.38,0,1.81-3.57s-8.06-8.05-11.18-4.49c0,0-5.94-1-4.79,6.7,1.51,10.14,6.27,8.47,7.45,6.15S1309.3,319.06,1309.3,319.06Z" transform="translate(-1235.06 -134.5)"/><path class="cls-12" d="M1310.84,317.87s-1-1.93-1.8-.78.17,3.49,1.94,3.8Z" transform="translate(-1235.06 -134.5)"/><path class="cls-12" d="M1346.46,352.52a11.93,11.93,0,0,1,1.08,1.57.23.23,0,0,1-.3.32l-1.23-.68s.09,2-2.79.23l-.07-2Z" transform="translate(-1235.06 -134.5)"/><path class="cls-51" d="M1343.76,351.93s-17.93-10.18-19.12-4.23,18.5,6.41,18.5,6.41A2.18,2.18,0,0,0,1343.76,351.93Z" transform="translate(-1235.06 -134.5)"/><path class="cls-51" d="M1318.12,331.25s2.69,1.35,6.44,6.68c5.08,7.23,7.42,11.55,2.7,13.15-1.2.4-9.45-8.25-9.45-8.25S1314.46,335.66,1318.12,331.25Z" transform="translate(-1235.06 -134.5)"/><path class="cls-51" d="M1311.86,327.58l-.87-1.49a9.24,9.24,0,0,0-4.31-1l-1,.87S1305.87,327,1311.86,327.58Z" transform="translate(-1235.06 -134.5)"/><path class="cls-64" d="M1505.84,218.49c3.55,9.63,16.75,22,27.61,17.35,5.36-2.29,8.29-9.81,4.7-14.4-2.55-3.27-7.15-4.08-10.45-6.58-3-2.24-4.68-5.69-6.91-8.64s-5.55-5.66-9.23-5.24c-7.72.86-7.73,11.5-5.92,17C1505.7,218.12,1505.77,218.3,1505.84,218.49Z" transform="translate(-1235.06 -134.5)"/></g></g></svg>